<svg height="512pt" viewBox="0 -8 512.00001 512" width="512pt" xmlns="http://www.w3.org/2000/svg"><path d="m248.492188 203.597656v26.214844c0 9.914062 15 9.929688 15 0v-26.214844c0-9.914062-15-9.929687-15 0zm0 0"/><path d="m378.464844 234.453125-12.695313-29.496094c-3.921875-9.109375-17.699219-3.191406-13.777343 5.929688l12.695312 29.496093c3.917969 9.097657 17.710938 3.21875 13.777344-5.929687zm0 0"/><path d="m146.214844 204.957031-12.691406 29.496094c-3.933594 9.140625 9.859374 15.03125 13.777343 5.929687l12.691407-29.496093c3.917968-9.105469-9.851563-15.050781-13.777344-5.929688zm0 0"/><path d="m502.761719 268.054688c-8.996094-13.824219-17.332031-29.703126-25.480469-48.550782-26.269531-60.765625-76.992188-108.542968-139.164062-131.078125-9.328126-3.394531-14.429688 10.722657-5.109376 14.101563 58.300782 21.132812 105.867188 65.9375 130.507813 122.925781 8.484375 19.632813 17.210937 36.242187 26.671875 50.78125 17.753906 27.28125-1.300781 63.363281-33.050781 65.078125-17.898438.980469-34.558594-9.480469-41.390625-26.113281-3.914063-9.527344-17.402344-9.539063-21.316406 0-6.535157 15.902343-21.859376 26.179687-39.039063 26.179687-17.183594 0-32.507813-10.277344-39.039063-26.183594-3.914062-9.523437-17.402343-9.53125-21.316406 0-6.535156 15.90625-21.855468 26.183594-39.039062 26.183594s-32.507813-10.277344-39.039063-26.183594c-3.914062-9.523437-17.402343-9.53125-21.316406 0-6.53125 15.90625-21.855469 26.183594-39.039063 26.183594-17.183593 0-32.507812-10.277344-39.039062-26.179687-3.921875-9.546875-17.402344-9.539063-21.320312 0-6.8125 16.585937-23.441407 27.066406-41.382813 26.113281-31.699219-1.707031-50.878906-37.78125-33.023437-65.136719 9.390624-14.386719 18.101562-30.980469 26.640624-50.722656 24.679688-57.078125 72.335938-101.914063 130.75-123.011719 9.328126-3.367187 4.246094-17.476562-5.09375-14.105468-62.296874 22.496093-113.113281 70.304687-139.425781 131.164062-8.195312 18.953125-16.515625 34.8125-25.433593 48.476562-14.609376 22.378907-11.828126 52.144532 7.417968 71.496094 10.03125 10.085938 23.296875 16.058594 37.359375 16.816406.210938.011719.425781.023438.636719.03125l10.914062 36.753907c2.839844 9.574219 17.199219 5.230469 14.378907-4.269531l-10.0625-33.875c15.488281-3.546876 28.996093-13.441407 36.980469-27.433594 10.078124 17.753906 28.882812 28.882812 49.703124 28.882812 20.8125 0 39.613282-11.125 49.695313-28.871094 10.082031 17.746094 28.882813 28.871094 49.695313 28.871094 20.816406 0 39.617187-11.125 49.699218-28.871094 10.082032 17.746094 28.882813 28.871094 49.695313 28.871094 20.820312 0 39.625-11.128906 49.703125-28.882812 7.980468 13.992187 21.492187 23.878906 36.980468 27.429687l-27.332031 92.050781c-5.886719 19.835938-24.453125 33.6875-45.140625 33.6875h-227.207031c-20.691406 0-39.253906-13.855468-45.140625-33.6875l-8.753906-29.480468c-2.824219-9.507813-17.207032-5.25-14.378906 4.269531l8.753906 29.480469c7.765625 26.152344 32.238281 44.414062 59.519531 44.414062h227.203125c27.28125 0 51.757812-18.261718 59.523438-44.414062l28.183593-94.925782c.214844-.007812.429688-.015624.644531-.027343 43.699219-2.363281 68.671876-51.574219 44.816407-88.238281zm0 0"/><path d="m255.992188 129.613281h.261718c36.75-.152343 66.085938-32.90625 60.800782-70.34375-3.410157-24.101562-29.371094-38.363281-51.933594-28.101562-.011719.007812-.027344.015625-.042969.019531-.402344.183594-.808594.351562-1.21875.507812 1.667969-6.066406 6.269531-12.851562 17.621094-17.097656 9.285156-3.472656 4.046875-17.523437-5.253907-14.050781-20.03125 7.492187-26.042968 21.417969-27.65625 31.316406-.570312-.207031-1.136718-.433593-1.695312-.6875-22.710938-10.328125-48.929688 4.238281-52.0625 28.984375-4.667969 36.941406 24.066406 69.457032 61.179688 69.453125zm-46.300782-67.570312c1.859375-14.671875 17.441406-23.367188 30.972656-17.214844 9.742188 4.429687 20.914063 4.429687 30.65625 0 .011719-.007813.027344-.015625.042969-.019531 13.339844-6.039063 28.820313 2.289062 30.839844 16.558594 4.023437 28.492187-18.675781 53.132812-46.011719 53.246093h-.199218c-28.0625.003907-49.839844-24.582031-46.300782-52.570312zm0 0"/></svg>